<?xml version="1.0" encoding="UTF-8"?>
<svg version="1.1" viewBox="0 0 931 248" xmlns="http://www.w3.org/2000/svg" xmlns:xlink="http://www.w3.org/1999/xlink">
<title>Untitled 6</title>
<desc>Created with Sketch.</desc>
<defs>
<linearGradient id="n" x1="49.998%" x2="49.998%" y1="100%" y2=".00071235%">
<stop stop-color="#F8F9F9" offset="1.5e-7"/>
<stop stop-color="#F3F4F5" offset=".5135"/>
<stop stop-color="#E9E9EB" offset="1"/>
</linearGradient>
<linearGradient id="g" x1="49.998%" x2="49.998%" y1="100.01%" y2=".0099176%">
<stop stop-color="#F8F9F9" offset="1.5e-7"/>
<stop stop-color="#F3F4F5" offset=".5135"/>
<stop stop-color="#E9E9EB" offset="1"/>
</linearGradient>
<linearGradient id="f" x1="49.997%" x2="49.997%" y1="99.999%" y2=".0053682%">
<stop stop-color="#F8F9F9" offset="1.5e-7"/>
<stop stop-color="#F3F4F5" offset=".5135"/>
<stop stop-color="#E9E9EB" offset="1"/>
</linearGradient>
<linearGradient id="e" x1="49.975%" x2="49.975%" y1="99.991%" y2="-6.6064e-5%">
<stop stop-color="#F8F9F9" offset="1.5e-7"/>
<stop stop-color="#F3F4F5" offset=".5135"/>
<stop stop-color="#E9E9EB" offset="1"/>
</linearGradient>
<linearGradient id="d" x1="49.966%" x2="49.966%" y1="100.2%" y2=".4062%">
<stop stop-color="#fff" offset="1.5e-7"/>
<stop stop-color="#FAFAFA" offset=".4266"/>
<stop stop-color="#EBEBED" offset=".9417"/>
<stop stop-color="#E9E9EB" offset="1"/>
</linearGradient>
<polygon id="b" points="0.724 1.12 1.449 1.12 0.724 1.84"/>
<polygon id="a" points="1.276 1.67 0.551 1.67 1.276 0.95"/>
<linearGradient id="m" x1="-3.7115%" x2="67.32%" y1="39.697%" y2="64.968%">
<stop stop-color="#fff" offset="0"/>
<stop stop-color="#fff" offset=".2283"/>
<stop stop-color="#C1C1C1" offset=".3384"/>
<stop stop-color="#7D7D7D" offset=".4716"/>
<stop stop-color="#474747" offset=".5922"/>
<stop stop-color="#212121" offset=".6957"/>
<stop stop-color="#090909" offset=".7781"/>
<stop offset=".8291"/>
</linearGradient>
<linearGradient id="l" x1="16.772%" x2="53.889%" y1="63.799%" y2="35.189%">
<stop stop-color="#fff" offset="1.5e-7"/>
<stop stop-color="#FAFAFA" offset=".315"/>
<stop stop-color="#EBEBEB" offset=".6952"/>
<stop stop-color="#DADADA" offset="1"/>
</linearGradient>
<linearGradient id="k" x1="74.983%" x2="4.9878%" y1="47.556%" y2="54.165%">
<stop stop-color="#3C3C3B" stop-opacity=".3" offset="0"/>
<stop stop-color="#636362" stop-opacity=".1887" offset=".3711"/>
<stop stop-color="#ACACAC" stop-opacity="0" offset="1"/>
</linearGradient>
<linearGradient id="j" x1="44.666%" x2="54.726%" y1="39.071%" y2="62.376%">
<stop stop-color="#fff" offset="1.5e-7"/>
<stop stop-color="#FAFAFA" offset=".4266"/>
<stop stop-color="#EBEBED" offset=".9417"/>
<stop stop-color="#E9E9EB" offset="1"/>
</linearGradient>
<linearGradient id="i" x1="44.511%" x2="61.994%" y1="37.846%" y2="57.204%">
<stop stop-color="#FED698" offset="0"/>
<stop stop-color="#FECA7A" offset="1"/>
</linearGradient>
<linearGradient id="h" x1="44.698%" x2="62.181%" y1="38.046%" y2="57.404%">
<stop stop-color="#FED698" offset="0"/>
<stop stop-color="#FECA7A" offset="1"/>
</linearGradient>
</defs>
<g fill="none" fill-rule="evenodd">
<polygon points="651.83 79.68 643.86 79.68 643.86 77 637.05 43.68 644.44 43.68 644.44 38.39 658.78 38.39 658.78 36.44 673.27 36.44 673.27 38.1 684.85 37.67 684.85 42.74 692.82 43.17 685.87 75.04 686.09 79.68 677.61 79.68 681.02 154.5 649.65 154.5" fill="url(#n)" fill-rule="nonzero"/>
<polygon points="640.24 48.97 651.83 48.97 657.11 74.61 645.31 74.61" fill="#fff" fill-rule="nonzero"/>
<polygon points="654.22 48.97 676.67 48.97 671.38 74.61 659.5 74.61" fill="#fff" fill-rule="nonzero"/>
<polygon points="679.06 48.97 689.2 48.97 684.13 74.61 673.77 74.61" fill="#fff" fill-rule="nonzero"/>
<path d="m665.44 36.22h1.812v-4.853h9.416v-4.563h-7.026s-3.404-4.853-6.736 0h-7.025v4.563h9.561v4.491" fill="#EDEDED" fill-rule="nonzero"/>
<rect x="679.71" y="19.71" width="2.173" height="18.47" fill="#EDEDED" fill-rule="nonzero"/>
<circle cx="680.87" cy="17.32" r="2.97" fill="#EDEDED" fill-rule="nonzero"/>
<polygon points="677.54 88.59 735.92 88.59 735.92 77.14 793.28 77.14 793.28 88.59 843.62 88.59 847.24 82.87 883.46 82.87 888.17 88.59 888.17 90.76 888.17 142.69 677.54 142.69" fill="url(#g)" fill-rule="nonzero"/>
<rect x="680.15" y="91.27" width="16.079" height="49.833" fill="#fff" fill-rule="nonzero"/>
<rect x="699.99" y="91.27" width="16.079" height="49.833" fill="#fff" fill-rule="nonzero"/>
<rect x="719.77" y="91.27" width="16.08" height="49.833" fill="#fff" fill-rule="nonzero"/>
<rect x="793.43" y="91.27" width="16.079" height="49.833" fill="#fff" fill-rule="nonzero"/>
<rect x="813.42" y="91.27" width="16.08" height="49.833" fill="#fff" fill-rule="nonzero"/>
<rect x="833.12" y="91.27" width="16.08" height="49.833" fill="#fff" fill-rule="nonzero"/>
<rect x="739.32" y="80.98" width="14.848" height="60.118" fill="#fff" fill-rule="nonzero"/>
<rect x="757.07" y="80.98" width="14.849" height="60.118" fill="#fff" fill-rule="nonzero"/>
<rect x="775.32" y="80.98" width="14.848" height="60.118" fill="#fff" fill-rule="nonzero"/>
<rect x="744.18" y="63.24" width="38.533" height="6.881" fill="#EDEDED" fill-rule="nonzero"/>
<rect x="749.46" y="70.12" width="1.449" height="7.823" fill="#EDEDED" fill-rule="nonzero"/>
<rect x="777.2" y="70.12" width="1.448" height="7.823" fill="#EDEDED" fill-rule="nonzero"/>
<rect x="612.93" y="22.31" width="19.194" height="130.23" fill="url(#f)" fill-rule="nonzero"/>
<rect x="586.28" y="63.24" width="19.194" height="89.307" fill="url(#e)" fill-rule="nonzero"/>
<path d="m930.68 53.17c0 1.304-5.36 4.636-6.592 5.143-1.23 0.58-53.236 11.517-57.51 12.386s-9.271 1.376-12.096 1.376c-2.824 0-7.171-0.652-8.257-0.362-1.087 0.29-2.535 0.869-3.694 0.362-1.158-0.507-2.463-0.942-4.49-1.087-2.028-0.217-3.042-1.014-3.26-2.1-0.217-1.014 1.738-1.376 1.738-1.376l-8.547-17.745 3.622-0.869 14.052 10.864s1.448 1.231 3.114 1.449 6.663 1.014 9.054 0.58c2.463-0.435 51.643-10.865 51.643-10.865s8.04-1.666 11.154-1.304c3.042 0.506 10.069 2.317 10.069 3.548z" fill="url(#d)" fill-rule="nonzero"/>
<g transform="translate(19 2)">
<mask fill="white">
<use xlink:href="#b"/>
</mask>
</g>
<g transform="translate(17)">
<mask id="c" fill="white">
<use xlink:href="#a"/>
</mask>
<path d="m825.46 72.15c-1.159-0.507-2.463-0.941-4.49-1.086-2.028-0.145-3.042-1.014-3.26-2.101-0.217-1.014 1.738-1.376 1.738-1.376l-8.547-17.746 3.622-0.869 14.051 10.864s1.449 1.231 3.115 1.449 6.663 1.014 9.054 0.58c2.463-0.362-14.124 10.792-15.283 10.285z" fill="url(#m)" fill-rule="nonzero" mask="url(#c)"/>
</g>
<path d="m842.46 72.15c-1.159-0.507-2.463-0.941-4.49-1.086-2.028-0.145-3.042-1.014-3.26-2.101-0.217-1.014 1.738-1.376 1.738-1.376l-8.547-17.746 3.622-0.869 14.051 10.864s1.449 1.231 3.115 1.449 6.663 1.014 9.054 0.58c2.463-0.362-14.124 10.792-15.283 10.285z" fill="url(#l)" fill-rule="nonzero"/>
<path d="m885.2 62.58l-23.105-3.187s-2.028-0.217-3.188-0.941c-1.158-0.797-5.504-5.432-5.504-5.432h-1.159l3.549 5.794s0.218 0.362 1.015 0.652c0.796 0.29 19.556 6.374 19.556 6.374l8.836-3.26z" fill="#CECECE" fill-rule="nonzero"/>
<path d="m873.54 62.3l-4.998 0.797-2.317 2.101s5.215-1.159 6.012-1.594c0.795-0.507 1.303-1.304 1.303-1.304z" fill="#A3A3A3" fill-rule="nonzero"/>
<path d="m876.94 63.38l-4.997 0.797-2.318 2.101s5.216-1.159 6.013-1.594c0.796-0.507 1.302-1.304 1.302-1.304z" fill="#A3A3A3" fill-rule="nonzero"/>
<path d="m879.69 64.61l-4.998 0.796-2.317 2.101s5.215-1.159 6.012-1.593c0.797-0.508 1.303-1.304 1.303-1.304z" fill="#A3A3A3" fill-rule="nonzero"/>
<polygon points="926.12 51.43 924.89 51 924.16 51.14 924.89 51.58" fill="#CECECE" fill-rule="nonzero"/>
<polygon points="923.8 51.21 922.93 51.29 923.3 51.87 924.53 51.65" fill="#CECECE" fill-rule="nonzero"/>
<polygon points="922.57 51.36 921.48 51.43 921.56 52.08 922.86 51.94" fill="#CECECE" fill-rule="nonzero"/>
<path d="m842.75 67.08c0.29 0.29-2.897 1.811-4.129 1.811-1.304 0-4.128-0.362-5.359-0.507-1.159-0.145-7.388-1.159-7.388-1.159s1.448-0.29 2.39-0.29 14.196-0.144 14.486 0.145z" fill="#CECECE" fill-rule="nonzero"/>
<path d="m912.5 54.47h0.073c0.145 0 0.217-0.145 0.145-0.218l-0.072-0.435c0-0.145-0.146-0.217-0.218-0.145h-0.072c-0.145 0-0.218 0.145-0.145 0.217l0.072 0.507c0 0.074 0.072 0.146 0.217 0.074z" fill="#CECECE" fill-rule="nonzero"/>
<path d="m911.27 54.76h0.072c0.145 0 0.217-0.145 0.145-0.217l-0.072-0.435c0-0.145-0.145-0.217-0.218-0.145h-0.072c-0.145 0-0.217 0.145-0.145 0.217l0.072 0.507c1e-3 0 0.073 0.073 0.218 0.073z" fill="#CECECE" fill-rule="nonzero"/>
<path d="m910.04 55.05c0.145 0 0.217-0.145 0.217-0.29l-0.072-0.435c0-0.145-0.145-0.217-0.29-0.145-0.145 0-0.217 0.145-0.145 0.29l0.072 0.435c-0.072 0.072 0.073 0.145 0.218 0.145z" fill="#CECECE" fill-rule="nonzero"/>
<path d="m908.66 55.34h0.073c0.145 0 0.217-0.145 0.145-0.218l-0.072-0.435c0-0.145-0.146-0.217-0.218-0.145h-0.072c-0.145 0-0.217 0.145-0.145 0.217l0.072 0.435c0 0.073 0.073 0.146 0.217 0.146z" fill="#CECECE" fill-rule="nonzero"/>
<path d="m907.43 55.63h0.072c0.145 0 0.217-0.145 0.145-0.217l-0.072-0.435c0-0.145-0.145-0.217-0.218-0.145h-0.072c-0.145 0-0.217 0.145-0.145 0.217l0.072 0.435c0 0.073 0.072 0.145 0.218 0.145z" fill="#CECECE" fill-rule="nonzero"/>
<path d="m906.13 55.92h0.072c0.145 0 0.217-0.145 0.145-0.217l-0.072-0.435c0-0.145-0.145-0.217-0.218-0.145h-0.072c-0.145 0-0.217 0.145-0.145 0.218l0.072 0.435c0 0.072 0.145 0.144 0.218 0.144z" fill="#CECECE" fill-rule="nonzero"/>
<path d="m904.83 56.14h0.072c0.145 0 0.217-0.145 0.145-0.217l-0.072-0.435c0-0.145-0.145-0.217-0.218-0.145h-0.072c-0.145 0-0.217 0.145-0.145 0.217l0.072 0.435c0 0.145 0.073 0.218 0.218 0.145z" fill="#CECECE" fill-rule="nonzero"/>
<path d="m903.6 56.43h0.072c0.145 0 0.217-0.145 0.145-0.217l-0.072-0.435c0-0.145-0.145-0.217-0.218-0.145h-0.072c-0.145 0-0.217 0.145-0.145 0.217l0.072 0.435c0 0.072 0.144 0.145 0.218 0.145z" fill="#CECECE" fill-rule="nonzero"/>
<path d="m902.36 56.72h0.072c0.145 0 0.217-0.145 0.145-0.217l-0.072-0.435c0-0.145-0.145-0.217-0.217-0.145h-0.073c-0.145 0-0.217 0.145-0.145 0.217l0.072 0.435c-0.072 0.072 0.073 0.145 0.218 0.145z" fill="#CECECE" fill-rule="nonzero"/>
<path d="m900.99 57.01h0.072c0.145 0 0.217-0.145 0.145-0.217l-0.072-0.435c0-0.145-0.145-0.217-0.218-0.145h-0.072c-0.145 0-0.217 0.145-0.145 0.217l0.072 0.435c1e-3 0.073 0.073 0.145 0.218 0.145z" fill="#CECECE" fill-rule="nonzero"/>
<path d="m899.76 57.3h0.072c0.145 0 0.217-0.145 0.145-0.217l-0.072-0.507c0-0.145-0.145-0.217-0.218-0.145h-0.072c-0.145 0-0.217 0.145-0.145 0.217l0.072 0.435c0 0.145 0.072 0.217 0.218 0.217z" fill="#CECECE" fill-rule="nonzero"/>
<path d="m898.45 57.59h0.072c0.145 0 0.217-0.145 0.145-0.217l-0.072-0.507c0-0.145-0.145-0.217-0.218-0.145h-0.072c-0.145 0-0.217 0.145-0.145 0.217l0.072 0.435c0 0.145 0.145 0.217 0.218 0.217z" fill="#CECECE" fill-rule="nonzero"/>
<path d="m891.14 59.11h0.072c0.145 0 0.217-0.145 0.145-0.217l-0.072-0.435c0-0.145-0.145-0.217-0.218-0.145h-0.072c-0.145 0-0.217 0.145-0.145 0.217l0.072 0.507c-0.072 1e-3 0.072 0.073 0.218 0.073z" fill="#CECECE" fill-rule="nonzero"/>
<path d="m889.9 59.33h0.072c0.145 0 0.217-0.145 0.145-0.217l-0.072-0.435c0-0.145-0.145-0.217-0.218-0.145h-0.072c-0.145 0-0.217 0.145-0.145 0.217l0.072 0.507c-0.072 0.073 0.073 0.145 0.218 0.073z" fill="#CECECE" fill-rule="nonzero"/>
<path d="m888.6 59.62h0.072c0.145 0 0.217-0.145 0.145-0.218l-0.072-0.435c0-0.145-0.145-0.217-0.218-0.145h-0.072c-0.145 0-0.217 0.145-0.145 0.217l0.072 0.507c0 0.074 0.072 0.146 0.218 0.074z" fill="#CECECE" fill-rule="nonzero"/>
<path d="m887.22 59.91h0.073c0.145 0 0.217-0.145 0.145-0.217l-0.072-0.435c0-0.145-0.146-0.217-0.218-0.145h-0.072c-0.145 0-0.217 0.145-0.145 0.217l0.072 0.435c0 0.145 0.144 0.217 0.217 0.145z" fill="#CECECE" fill-rule="nonzero"/>
<path d="m885.99 60.2h0.072c0.145 0 0.217-0.145 0.145-0.217l-0.072-0.435c0-0.145-0.145-0.217-0.218-0.145h-0.072c-0.145 0-0.217 0.145-0.145 0.218l0.072 0.435c0 0.072 0.145 0.144 0.218 0.144z" fill="#CECECE" fill-rule="nonzero"/>
<path d="m884.76 60.48h0.072c0.145 0 0.218-0.145 0.145-0.218l-0.072-0.435c0-0.145-0.145-0.217-0.217-0.145h-0.073c-0.145 0-0.217 0.145-0.145 0.217l0.072 0.435c0 0.074 0.072 0.146 0.218 0.146z" fill="#CECECE" fill-rule="nonzero"/>
<path d="m883.31 60.78h0.073c0.145 0 0.217-0.145 0.145-0.217l-0.072-0.435c0-0.145-0.146-0.217-0.218-0.145h-0.072c-0.145 0-0.218 0.145-0.145 0.217l0.072 0.435c1e-3 0.073 0.145 0.145 0.217 0.145z" fill="#CECECE" fill-rule="nonzero"/>
<path d="m882.08 60.99h0.073c0.145 0 0.217-0.145 0.145-0.217l-0.072-0.435c0-0.145-0.146-0.217-0.218-0.145h-0.072c-0.145 0-0.217 0.145-0.145 0.217l0.072 0.435c0 0.145 0.145 0.217 0.217 0.145z" fill="#CECECE" fill-rule="nonzero"/>
<path d="m880.85 61.35h0.072c0.145 0 0.217-0.145 0.145-0.217l-0.072-0.435c0-0.145-0.145-0.217-0.218-0.145h-0.072c-0.145 0-0.217 0.145-0.145 0.217l0.072 0.435c-0.072 0.073 0.072 0.145 0.218 0.145z" fill="#CECECE" fill-rule="nonzero"/>
<path d="m879.48 61.64h0.073c0.145 0 0.217-0.145 0.145-0.217l-0.072-0.435c0-0.145-0.146-0.217-0.218-0.145h-0.072c-0.145 0-0.217 0.145-0.145 0.217l0.072 0.435c0 0.073 0.072 0.145 0.217 0.145z" fill="#CECECE" fill-rule="nonzero"/>
<path d="m878.24 61.86h0.072c0.145 0 0.217-0.145 0.145-0.217l-0.072-0.435c0-0.145-0.145-0.217-0.218-0.145h-0.072c-0.145 0-0.217 0.145-0.145 0.217l0.072 0.435c0 0.145 0.073 0.218 0.218 0.145z" fill="#CECECE" fill-rule="nonzero"/>
<path d="m866.87 64.25h0.072c0.145 0 0.218-0.145 0.145-0.217l-0.072-0.507c0-0.145-0.145-0.217-0.217-0.145h-0.072c-0.146 0-0.218 0.145-0.146 0.217l0.072 0.435c1e-3 0.145 0.146 0.217 0.218 0.217z" fill="#CECECE" fill-rule="nonzero"/>
<path d="m865.64 64.47h0.072c0.146 0 0.218-0.145 0.146-0.217l-0.073-0.507c0-0.145-0.145-0.217-0.217-0.145h-0.072c-0.145 0-0.218 0.145-0.145 0.217l0.072 0.435c0 0.144 0.144 0.217 0.217 0.217z" fill="#CECECE" fill-rule="nonzero"/>
<path d="m864.41 64.76h0.072c0.146 0 0.218-0.145 0.146-0.217l-0.072-0.507c0-0.145-0.146-0.217-0.218-0.145h-0.072c-0.145 0-0.218 0.145-0.145 0.217l0.072 0.435c0 0.145 0.073 0.217 0.217 0.217z" fill="#CECECE" fill-rule="nonzero"/>
<path d="m863.03 65.05h0.072c0.146 0 0.218-0.145 0.146-0.217l-0.073-0.435c0-0.145-0.145-0.217-0.217-0.145h-0.072c-0.146 0-0.218 0.145-0.146 0.217l0.073 0.507c0 0.073 0.145 0.146 0.217 0.073z" fill="#CECECE" fill-rule="nonzero"/>
<path d="m861.8 65.34h0.072c0.146 0 0.218-0.145 0.146-0.217l-0.072-0.435c0-0.145-0.146-0.217-0.218-0.145h-0.072c-0.146 0-0.218 0.145-0.146 0.217l0.073 0.507c0 1e-3 0.144 0.073 0.217 0.073z" fill="#CECECE" fill-rule="nonzero"/>
<path d="m860.57 65.63h0.072c0.146 0 0.218-0.145 0.146-0.218l-0.072-0.507c0-0.145-0.146-0.217-0.218-0.145h-0.072c-0.145 0-0.218 0.145-0.145 0.217l0.072 0.435c1e-3 0.145 0.073 0.218 0.217 0.218z" fill="#CECECE" fill-rule="nonzero"/>
<path d="m859.12 65.92h0.072c0.145 0 0.218-0.145 0.145-0.217l-0.072-0.435c0-0.145-0.145-0.217-0.217-0.145h-0.072c-0.146 0-0.218 0.145-0.146 0.217l0.072 0.435c0 0.073 0.074 0.145 0.218 0.145z" fill="#CECECE" fill-rule="nonzero"/>
<path d="m857.89 66.14h0.072c0.145 0 0.218-0.145 0.145-0.217l-0.072-0.435c0-0.145-0.145-0.217-0.217-0.145h-0.072c-0.146 0-0.218 0.145-0.146 0.217l0.073 0.435c0 0.145 0.072 0.217 0.217 0.145z" fill="#CECECE" fill-rule="nonzero"/>
<path d="m856.59 66.42h0.072c0.146 0 0.218-0.145 0.146-0.217l-0.073-0.435c0-0.145-0.145-0.217-0.217-0.145h-0.072c-0.146 0-0.218 0.145-0.146 0.217l0.072 0.507c0 0.073 0.146 0.146 0.218 0.073z" fill="#CECECE" fill-rule="nonzero"/>
<path d="m855.28 66.79h0.072c0.145 0 0.218-0.145 0.145-0.217l-0.072-0.507c0-0.145-0.145-0.218-0.217-0.145h-0.072c-0.146 0-0.218 0.145-0.146 0.217l0.072 0.435c1e-3 0.144 0.074 0.217 0.218 0.217z" fill="#CECECE" fill-rule="nonzero"/>
<polygon points="871.65 71.42 887.08 67.8 885.49 63.53 870.42 67.29" fill="url(#k)" fill-rule="nonzero"/>
<path d="m893.67 58.46h0.072c0.145 0 0.217-0.145 0.145-0.217l-0.072-0.435c0-0.145-0.145-0.217-0.218-0.145h-0.072c-0.145 0-0.217 0.145-0.145 0.217l0.072 0.435c0 0.145 0.145 0.217 0.218 0.145z" fill="#CECECE" fill-rule="nonzero"/>
<path d="m896.5 58.02h0.072c0.146 0 0.218-0.145 0.146-0.217l-0.073-0.435c0-0.145-0.145-0.217-0.217-0.145h-0.072c-0.146 0-0.218 0.145-0.146 0.217l0.073 0.435c0 0.073 0.073 0.145 0.217 0.145z" fill="#CECECE" fill-rule="nonzero"/>
<polygon points="875.49 56.86 874.4 56.86 875.13 58.31 876.51 58.02" fill="#A5A5A5" fill-rule="nonzero"/>
<path d="m890.77 61.64c-2.535 0.507-6.229 1.956-6.084 2.245 0.072 0.29 0 0.652-0.435 0.869-0.362 0.145-0.362 1.159-0.146 1.666 0.218 0.435 0.362 1.159 0.869 1.086 0.507-0.072 1.087 0.435 1.449 0.435 0.361 0 4.056-0.579 6.084-1.086 0.797-0.217 2.97-1.231 2.97-1.231l-0.652-4.201c1e-3 -0.073-2.823-0.073-4.055 0.217z" fill="url(#j)" fill-rule="nonzero"/>
<ellipse transform="translate(895.09 63.442) rotate(260.82) translate(-895.09 -63.442)" cx="895.09" cy="63.442" rx="2.1" ry="1" fill="#CECECE" fill-rule="nonzero"/>
<path d="m429.39 112.56s-0.145 0.435-0.29 0.58-1.304-0.145-1.304-0.652c0-0.434 1.594 0.072 1.594 0.072z" fill="#EEA886" fill-rule="nonzero"/>
<path d="m408.1 157.98c0.507 0.725 7.025 7.243 7.46 8.04 0.435 0.796 3.187 3.911 3.187 3.911l1.231-1.159s-2.463-4.563-4.418-7.677c-0.217-0.291-0.362-0.58-0.579-0.869-0.652-1.087-1.231-1.884-1.521-2.102-1.159-0.797-2.825-1.955-2.246-3.187 0.652-1.231 3.042-7.822 3.042-8.475 0-0.651 4.78-11.154-4.781-6.084 0 0-2.245 6.809-1.883 10.792 0.363 3.985 1e-3 6.013 0.508 6.81z" fill="#DB9B7B" fill-rule="nonzero"/>
<path d="m418.74 169.93s0.217 0.797 0.073 1.231c-0.145 0.507-0.217 2.535-0.725 2.897-0.507 0.361-1.666 0.724-1.593 0.797 0.072 0.434 0.435 0.579 1.593 0.434 1.159-0.145 2.101-1.883 2.752-3.041 0.652-1.232 1.593-1.884 0.797-2.463-0.797-0.652-1.811-1.305-1.956-1.377-0.144-0.072-0.941 1.522-0.941 1.522z" fill="#DE9673" fill-rule="nonzero"/>
<path d="m418.09 139.14s2.318 3.404 1.449 5.939c-0.797 2.535-4.491 8.402-4.78 9.344-0.29 0.941-1.014 2.173-0.29 2.317 1.014 0.146 2.246 0.218 4.129 1.159 1.304 0.579 3.259 0.652 4.635 1.014 0.507 0.145 0.869 1.305 0.362 1.666-0.362 0.29-10.792-0.361-12.458-1.086-0.725-0.29-0.869-1.305-0.507-4.129 0.145-1.304 1.159-5.505 1.376-7.098 0.217-1.521 0.797-3.839 0.797-3.839s-2.028-8.619 5.287-5.287z" fill="#EEA886" fill-rule="nonzero"/>
<path d="m423.52 160.58s0.942-0.145 1.449-0.145c0.435 0 2.246-0.217 2.752-0.145s0.941 0.579 1.159 0.361c0.217-0.217-0.362-0.797-1.014-1.158-0.652-0.362-2.39-1.231-3.332-1.811-0.941-0.652-1.376-0.725-1.666 0.072-0.29 0.724-0.507 1.811-0.652 2.172-0.144 0.293 1.304 0.654 1.304 0.654z" fill="#EEA886" fill-rule="nonzero"/>
<path d="m407.59 154.28s-0.797 1.231 7.678-0.072c0 0 7.243-9.344 3.767-13.979-1.811-2.462-9.851-0.362-9.851-0.362s-1.739 2.752-1.594 14.413z" fill="#103872" fill-rule="nonzero"/>
<path d="m416.5 174.85s-0.145-0.508 1.448-0.797c0.942-0.146 2.391-2.535 2.535-2.825 0.145-0.29 0.362-1.811 0.652-1.884 0.29-0.072 1.304 0.797 0.58 1.884-0.797 1.087-1.738 3.767-3.622 4.056-1.376 0.217-1.593-0.145-1.593-0.434z" fill="#363636" fill-rule="nonzero"/>
<path d="m422.8 158.12s0.145-1.521 1.376-0.797c1.231 0.725 2.39 1.521 3.694 2.102 1.304 0.579 1.304 1.086 1.014 1.375-0.362 0.218-1.231-0.361-1.739-0.506-0.578-0.218-1.592-1.377-4.345-2.174z" fill="#363636" fill-rule="nonzero"/>
<path d="m415.05 160.15s-2.825-0.362-3.549-0.579c0.652 0.217 3.767 1.304 4.056 1.448-0.144-0.289-0.362-0.579-0.507-0.869z" fill="#A77860" fill-rule="nonzero"/>
<path d="m428.16 111.04s0.435 0.29 0.507 0.435 1.014-0.652 1.014-0.652-1.159-0.363-1.521 0.217z" fill="#CF8C6C" fill-rule="nonzero"/>
<path d="m398.97 135.52s-0.362 0.072-0.58 0.217c-0.145 0.145-0.507 0.218-0.724 0.218-0.145 0.072-0.941 0.362-1.086 0.507-0.072 0.072-0.362 0.507-0.507 0.58-0.145 0.072-0.435 0.217-0.362 0.362 0.072 0.145 0.362 0.073 0.362 0.073s-0.072 0.072 0 0.217c0.073 0.217 0.29 0.29 0.29 0.29s-0.072 0.145 0 0.217c0.145 0.217 0.29 0.217 0.29 0.217s0 0.145 0.073 0.29c0.145 0.145 0.362 0.073 0.362 0.073s0.073 0.29 0.217 0.29c0.145 0 0.217-0.145 0.362-0.145 0.145-0.072 0.941-0.724 1.304-1.521 0.362-0.724 1.231-0.869 1.231-0.869l-1.232-1.016z" fill="#EEA886" fill-rule="nonzero"/>
<path d="m412.8 124.3s-1.376-0.145-2.173 0.58c-0.869 0.724-1.448 2.028-1.666 2.39-0.29 0.435-3.26 4.056-3.477 4.128-0.145 0.073-2.462 1.231-3.766 2.173s-3.549 1.956-3.549 1.956l1.014 1.738s6.301-2.463 7.388-3.622c1.231-1.231 4.998-4.708 4.998-4.708s3.331-2.824 1.231-4.635z" fill="#103872" fill-rule="nonzero"/>
<path d="m414.69 123.86s-1.376 0.435-1.811 0.507c-0.435 0-2.535 2.101-2.897 2.897-0.435 0.797-0.29 2.101 0.145 3.622s-0.217 1.956-0.145 3.477c0.073 1.521-0.072 4.636-0.217 5.432-0.145 0.797 7.171 1.956 9.054 0.652 0 0-1.376-2.752-1.521-3.114s0.29-2.318 0.507-2.825c0.29-0.507 2.173-4.346 2.173-4.346s1.521-3.404 0.652-4.346c-0.797-0.797-3.042-1.304-3.404-1.521-0.363-0.218-1.667-0.435-2.536-0.435z" fill="#103872" fill-rule="nonzero"/>
<path d="m417.51 114.81c-0.724-0.362-3.477-1.449-4.635 2.101-1.159 3.549 0.507 6.374 2.462 5.939 1.956-0.435 3.404-2.825 3.767-4.708 0.362-1.811-0.652-2.825-1.594-3.332z" fill="#EEA886" fill-rule="nonzero"/>
<path d="m412.88 116.98s0.29-3.115 3.404-2.825 3.622 2.97 3.114 4.78c-0.507 1.811-1.883 2.607-1.883 2.607s0.29-1.448-0.217-1.956c-0.507-0.507-2.825-1.593-3.622-3.477-0.071 2e-3 -0.651 0.436-0.796 0.871z" fill="#252E3B" fill-rule="nonzero"/>
<ellipse transform="translate(418.8 116.76) rotate(259.33) translate(-418.8 -116.76)" cx="418.8" cy="116.76" rx="2.39" ry="2.101" fill="#252E3B" fill-rule="nonzero"/>
<path d="m414.25 122.27s-0.072 2.39-0.217 3.187c0 0 1.159 1.521 3.115-1.231 0 0-0.507-1.304 0.217-2.897 0.652-1.522-3.115 0.941-3.115 0.941z" fill="#EEA886" fill-rule="nonzero"/>
<polygon points="414.04 125.46 413.89 126.69 415.56 125.74" fill="#EEA886" fill-rule="nonzero"/>
<path d="m417.37 124.37s-2.173 3.042-2.535 4.201c-0.869 2.825 0.072 9.996 0.29 12.965 0.217 3.042 6.084 0.724 6.084 0.724s-3.332-5.722-1.666-9.416 2.028-6.084 2.028-6.084-0.579-1.376-1.811-1.666c-1.303-0.362-2.39-0.724-2.39-0.724z" fill="#103872" fill-rule="nonzero"/>
<path d="m409.54 127.48s-0.072 2.825 0.29 4.273c0 0-0.362 3.042-0.507 4.128-0.217 1.666-1.666 4.78-1.666 4.78l1.593 1.304c0.145 0.145 0.435 0 0.435-0.218 0.145-2.752 1.014-14.848 4.056-17.601l-1.231 0.217c0.073-0.07-2.245 1.596-2.97 3.117z" fill="#103872" fill-rule="nonzero"/>
<path d="m417.01 118.86c0.145-0.29 0.507-0.29 0.725-0.145 0.217 0.217 0.29 0.724-0.145 1.304-0.435 0.652-1.739 0.869-0.58-1.159z" fill="#EEA886" fill-rule="nonzero"/>
<path d="m414.25 122.78v0.507s1.014 0.362 2.68-1.159c-0.072 1e-3 -1.231 1.087-2.68 0.652z" fill="#A77860" fill-rule="nonzero"/>
<path d="m409.26 131.25s-0.362-1.956 0.145-3.187c0 0-0.217 1.159 0.29 2.752l-0.435 0.435z" fill="#000" fill-rule="nonzero" opacity=".6"/>
<polygon points="414.54 125.6 413.89 126.69 416.06 125.46" fill="#D6C5BE" fill-rule="nonzero"/>
<path d="m417.01 123.93s-1.738 1.304-2.462 1.666l1.231 1.304 1.666-2.535-0.435-0.435z" fill="#FAE6DE" fill-rule="nonzero"/>
<path d="m413.89 126.69s0.362-2.39 0.29-2.752l-0.652 1.521 0.362 1.231z" fill="#D6C5BE" fill-rule="nonzero"/>
<polygon points="414.18 123.93 413.82 124.08 412.23 125.96 413.53 125.46" fill="#FAE6DE" fill-rule="nonzero"/>
<path d="m396.15 137.41s0.724-0.652 1.014-0.579c0.29 0.072 0.072 0.29 0.072 0.29s0.217-0.217 0.435-0.073c0.217 0.145-0.072 0.435-0.072 0.435s0.217-0.145 0.362 0.145c0.145 0.217-0.145 0.435-0.145 0.435s0.435 0 0.29 0.29c-0.217 0.579-0.869 0.724-0.869 0.724s-0.145 0-0.29-0.217c0 0-0.434 0.072-0.507-0.362 0 0-0.435-0.145-0.29-0.507 0.072-1e-3 -0.362-0.218 0-0.581z" fill="#DB9C7C" fill-rule="nonzero"/>
<path d="m427.58 109.23s-0.145 1.304 0.073 1.376c0.217 0.073 0.29-0.072 0.29-0.072l0.217 0.58s0.362 0.29 0.58-0.145c0 0 0.29 0.29 0.435-0.145 0 0 0.29 0.145 0.435-0.072s0.145-1.086 0.145-1.086-0.072-0.217-0.435-0.145c0 0-0.145-0.29-0.507-0.217 0 0-0.145-0.217-0.507-0.145 0 0-0.435-0.435-0.797-0.145 0.071 0.071 0.071 0.143 0.071 0.216z" fill="#DB9C7C" fill-rule="nonzero"/>
<path d="m427.07 111.4s0.507-0.797 0.941-1.086c0.073-0.072 0.217-0.145 0.29-0.072 0.072 0.072 0.145 0.29-0.072 0.652s-0.29 0.869-0.29 0.869-0.217 0.361-0.869-0.363z" fill="#EEA886" fill-rule="nonzero"/>
<path d="m408.68 138.42l0.435-1.376s4.128 0.941 10.068 0c0 0 0.29 1.376 0.362 1.521 0-0.072-6.953 1.304-10.865-0.145z" fill="#D62F18" fill-rule="nonzero"/>
<path d="m408.68 141.32s3.984 2.173 11.299 1.304c-0.072 1e-3 -7.46 1.449-11.299-1.304z" fill="#000" fill-rule="nonzero" opacity=".6"/>
<rect transform="translate(418.05 129.26) rotate(96.817) translate(-418.05 -129.26)" x="417.86" y="128.1" width="1" height="2.3179" fill="#D62F18" fill-rule="nonzero"/>
<path d="m413.53 138.56s0.435 1.376 1.738 1.521c0 0 0.145-1.231 0.797-1.159 0.652 0.073 0-0.145 0-0.145s-1.086-0.435-1.159-0.725" fill="#D62F18" fill-rule="nonzero"/>
<path d="m414.11 138.56s-0.435 1.376-1.739 1.521c0 0-0.145-1.231-0.796-1.159-0.652 0.073 0-0.145 0-0.145s1.086-0.435 1.159-0.725" fill="#D62F18" fill-rule="nonzero"/>
<path d="m489.22 150.81s-14.703 1.666-15.935-21.439c-0.797-15.5-7.388-28.61-19.556-29.986-12.241-1.304-20.643 0.869-37.302 26.002s-47.08 5.505-50.701-2.101" stroke="#E8E6E5" stroke-width="6"/>
<path d="m283.81 130.82s-10.865 10.067-25.568-7.895c-9.778-12.023-22.888-18.76-33.463-12.603-10.647 6.157-16.08 12.965-14.704 43.024 1.376 30.058-34.694 32.304-42.082 28.32 0 0-35.274-8.04-47.587-52.005s-78.949-38.171-78.225-6.301-42.01 30.131-42.01 30.131" stroke="#E8E6E5" stroke-width="6"/>
<path d="m427.8 112.49s-0.579-0.869-0.652-1.014c-0.072-0.145-0.072-0.579 0-1.159 0.073-0.507 0.435-1.231 0.507-1.231 0.072-0.072 0.145-0.145 0.362-0.072s0.435 0.217 0.435 0.217 0.29-0.073 0.507 0.145c0 0 0.29-0.073 0.507 0.217 0 0 0.29-0.073 0.435 0.145v0.652c0.072 0.145-0.145 1.376-0.435 2.246-0.072-0.074-0.507 0.506-1.666-0.146z" fill="#EEA886" fill-rule="nonzero"/>
<path d="m416.43 131.4s1.811 1.883 3.042 0.217c1.231-1.738 1.666-2.752 2.1-3.477s3.187-4.998 3.332-5.215 1.593-2.97 1.956-4.056c0.29-0.797 2.607-5.722 2.68-5.939 0.145-0.217-2.318-0.869-2.318-0.869s-2.318 4.925-2.535 5.36c-0.217 0.507-1.304 3.042-1.811 3.694-0.652 0.797-2.752 3.911-3.187 3.984-0.506-1e-3 -4.345 5.214-3.259 6.301z" fill="#103872" fill-rule="nonzero"/>
<path d="m517.32 246.27l-79.963-46.139c-2.246-1.304-1.956-3.549 0.652-5.069l54.396-31.436c2.607-1.521 6.591-1.665 8.836-0.362l79.892 46.139c2.245 1.304 1.955 3.549-0.652 5.07l-54.396 31.435c-2.608 1.521-6.52 1.665-8.765 0.362z" fill="#3D3D3D" fill-rule="nonzero" opacity=".1"/>
<path d="m584.32 111.69l-81.194-46.862c-1.015-0.58-2.028-0.725-2.753-0.362l-0.145 0.072-2.68 1.231 2.897 1.449v0.145 66.708c0 3.332 2.101 7.243 4.635 8.691l79.022 45.631 0.435 3.694 2.896-1.377c0.942-0.579 1.521-1.811 1.521-3.621v-66.708c0.001999-3.331-2.099-7.242-4.634-8.691z" fill="#173D7A" fill-rule="nonzero"/>
<path d="m584.32 111.69l-81.194-46.862c-1.015-0.58-2.028-0.725-2.753-0.362l-0.145 0.072-2.68 1.231 2.897 1.449v0.145 43.965l36.939 29.189 50.194-25.278c-0.867-1.52-2.026-2.824-3.258-3.549z" fill="#396CAA" fill-rule="nonzero"/>
<path d="m585.7 112.78l-7.967 3.332 6.012 4.636 4.997-2.101c-0.433-2.246-1.592-4.418-3.042-5.867z" fill="#274F89" fill-rule="nonzero"/>
<path d="m581.64 191.73l-81.194-46.863c-2.535-1.449-4.636-5.36-4.636-8.692v-66.708c0-3.332 2.027-4.853 4.636-3.404l81.194 46.862c2.535 1.449 4.636 5.36 4.636 8.692v66.708c-1e-3 3.405-2.029 4.926-4.636 3.405z" fill="#D4ECFF" fill-rule="nonzero"/>
<path d="m578.96 186.8l-75.835-43.748c-2.318-1.376-4.201-4.925-4.201-7.967v-61.059c0-3.042 1.883-4.418 4.201-3.115l75.835 43.748c2.317 1.376 4.2 4.925 4.2 7.967v61.059c1e-3 3.042-1.883 4.491-4.2 3.115z" fill="#fff" fill-rule="nonzero"/>
<path d="m578.96 186.8l-75.835-43.748c-2.318-1.376-4.201-4.925-4.201-7.967v-61.059c0-3.042 1.883-4.418 4.201-3.115l75.835 43.748c2.317 1.376 4.2 4.925 4.2 7.967v61.059c1e-3 3.042-1.883 4.491-4.2 3.115z" fill="#fff" fill-rule="nonzero"/>
<path d="m582.87 193.83l-10.938-1.449-70.475-40.706c-2.245-1.304-6.229-1.159-8.837 0.362l-49.977 28.827-6.591-0.869v3.767c-0.072 0.869 0.435 1.666 1.521 2.318l79.891 46.138c2.246 1.304 6.229 1.159 8.837-0.362l54.396-31.435c1.448-0.869 2.173-1.956 2.173-2.97v-3.621z" fill="#173D7A" fill-rule="nonzero"/>
<path d="m529.92 168.12l-4.997-2.897h-55.048l-27.161 15.645-6.591-0.869v3.767c-0.072 0.869 0.435 1.666 1.521 2.318l79.891 46.138c1.159 0.725 2.825 0.941 4.563 0.869l7.822-64.971z" fill="#396CAA" fill-rule="nonzero"/>
<path d="m439.02 180.43l-2.897-0.361v3.766c-0.072 0.869 0.435 1.666 1.521 2.318l1.376 0.797v-6.52z" fill="#5793CE" fill-rule="nonzero"/>
<path d="m518.34 232.58c2.173 0.797 5.215 0.652 7.461-0.435v-8.329h-7.461v8.764z" fill="#274F89" fill-rule="nonzero"/>
<path d="m517.47 228.45l-79.891-46.138c-2.245-1.304-1.956-3.549 0.652-5.07l54.395-31.435c2.607-1.521 6.592-1.666 8.837-0.362l79.891 46.138c2.245 1.305 1.956 3.55-0.651 5.07l-54.396 31.436c-2.608 1.52-6.519 1.665-8.837 0.361z" fill="#D4ECFF" fill-rule="nonzero"/>
<g transform="translate(467 147)" fill="#173D7A" fill-rule="nonzero">
<path d="m4.55 20.03l-3.621-2.101c-0.29-0.145-0.29-0.434 0.072-0.651l4.273-2.463c0.362-0.218 0.869-0.218 1.159-0.072l3.621 2.101c0.29 0.145 0.29 0.435-0.072 0.652l-4.273 2.462c-0.29 0.218-0.869 0.29-1.159 0.072z"/>
<path d="m10.2 23.29l-3.621-2.101c-0.29-0.145-0.29-0.435 0.072-0.652l4.273-2.463c0.362-0.217 0.869-0.217 1.159-0.072l3.621 2.102c0.29 0.145 0.29 0.434-0.072 0.651l-4.273 2.462c-0.362 0.218-0.869 0.218-1.159 0.073z"/>
<path d="m15.77 26.48l-3.621-2.1c-0.29-0.146-0.218-0.436 0.072-0.652l4.273-2.463c0.362-0.217 0.869-0.217 1.159-0.072l3.621 2.101c0.29 0.145 0.29 0.435-0.072 0.651l-4.273 2.463c-0.362 0.216-0.869 0.289-1.159 0.072z"/>
<path d="m23.45 23.87l-3.621-2.101c-0.29-0.145-0.29-0.435 0.072-0.651l3.549-2.101c0.362-0.218 0.869-0.218 1.159-0.073l3.621 2.102c0.29 0.145 0.29 0.434-0.072 0.651l-3.549 2.101c-0.362 0.217-0.869 0.217-1.159 0.072z"/>
<path d="m29.03 27.06l-3.621-2.102c-0.29-0.145-0.29-0.434 0.072-0.651l3.549-2.101c0.362-0.217 0.869-0.217 1.159-0.072l3.621 2.101c0.29 0.146 0.29 0.435-0.072 0.651l-3.549 2.102c-0.362 0.216-0.869 0.216-1.159 0.072z"/>
<path d="m34.6 30.32l-3.621-2.101c-0.29-0.145-0.29-0.435 0.072-0.651l3.549-2.101c0.362-0.217 0.869-0.217 1.159-0.072l3.621 2.1c0.29 0.146 0.29 0.436-0.072 0.652l-3.549 2.101c-0.362 0.218-0.868 0.218-1.159 0.072z"/>
<path d="m40.18 33.5l-3.621-2.101c-0.29-0.146-0.29-0.436 0.072-0.652l3.549-2.1c0.362-0.218 0.869-0.218 1.159-0.073l3.621 2.101c0.29 0.145 0.218 0.435-0.072 0.652l-3.549 2.1c-0.362 0.217-0.869 0.217-1.159 0.073z"/>
<path d="m45.83 36.76l-3.622-2.101c-0.29-0.145-0.29-0.435 0.072-0.651l3.55-2.101c0.361-0.218 0.869-0.218 1.158-0.072l3.622 2.101c0.289 0.145 0.289 0.435-0.073 0.651l-3.549 2.101c-0.362 0.217-0.869 0.217-1.158 0.072z"/>
<path d="m51.41 39.95l-3.621-2.101c-0.29-0.146-0.29-0.435 0.072-0.652l3.549-2.101c0.362-0.217 0.869-0.217 1.159-0.072l3.622 2.101c0.289 0.145 0.289 0.435-0.072 0.652l-3.55 2.1c-0.362 0.218-0.869 0.218-1.159 0.073z"/>
<path d="m56.99 43.21l-3.622-2.101c-0.29-0.145-0.29-0.435 0.072-0.651l3.55-2.101c0.361-0.218 0.869-0.218 1.158-0.072l3.622 2.101c0.289 0.145 0.289 0.435-0.073 0.651l-3.549 2.101c-0.362 0.218-0.869 0.218-1.158 0.072z"/>
<path d="m62.56 46.4l-3.621-2.101c-0.29-0.146-0.29-0.435 0.072-0.652l3.549-2.101c0.362-0.217 0.87-0.217 1.159-0.072l3.622 2.101c0.289 0.145 0.217 0.435-0.072 0.652l-3.55 2.1c-0.362 0.217-0.868 0.217-1.159 0.073z"/>
<path d="m68.14 49.65l-3.622-2.101c-0.29-0.145-0.29-0.435 0.072-0.651l3.55-2.101c0.361-0.218 0.869-0.218 1.158-0.072l3.622 2.101c0.289 0.145 0.289 0.435-0.073 0.651l-3.549 2.101c-0.362 0.218-0.869 0.218-1.158 0.072z"/>
<path d="m73.72 52.84l-3.621-2.101c-0.29-0.146-0.29-0.435 0.072-0.652l3.549-2.101c0.362-0.217 0.87-0.217 1.159-0.072l3.622 2.101c0.289 0.145 0.289 0.435-0.072 0.652l-3.55 2.101c-0.362 0.216-0.869 0.216-1.159 0.072z"/>
<path d="m31.71 22.35l-3.622-2.1c-0.29-0.145-0.29-0.436 0.072-0.652l3.55-2.1c0.361-0.218 0.869-0.218 1.158-0.073l3.622 2.101c0.289 0.145 0.289 0.435-0.072 0.652l-3.55 2.1c-0.362 0.217-0.869 0.217-1.158 0.072z"/>
<path d="m26.06 19.02l-3.621-2.101c-0.29-0.145-0.218-0.435 0.072-0.652l3.549-2.1c0.362-0.218 0.869-0.218 1.159-0.072l3.621 2.1c0.29 0.145 0.29 0.435-0.072 0.652l-3.549 2.1c-0.363 0.217-0.869 0.29-1.159 0.073z"/>
<path d="m20.34 15.76l-7.822-4.49c-0.29-0.146-0.29-0.435 0.072-0.652l3.549-2.101c0.362-0.217 0.869-0.217 1.159-0.072l7.822 4.49c0.29 0.146 0.29 0.436-0.072 0.652l-3.549 2.101c-0.362 0.217-0.869 0.29-1.159 0.072z"/>
<path d="m24.32 11.77l-6.301-3.621c-0.29-0.146-0.29-0.435 0.072-0.652l3.549-2.101c0.362-0.217 0.869-0.217 1.159-0.072l6.301 3.622c0.29 0.145 0.29 0.434-0.072 0.651l-3.549 2.101c-0.362 0.217-0.869 0.217-1.159 0.072z"/>
<path d="m37.28 25.54l-3.622-2.101c-0.29-0.145-0.29-0.435 0.072-0.651l3.55-2.101c0.361-0.218 0.869-0.218 1.158-0.073l3.622 2.102c0.289 0.145 0.217 0.434-0.073 0.651l-3.549 2.101c-0.362 0.217-0.869 0.217-1.158 0.072z"/>
<path d="m42.86 28.8l-3.622-2.101c-0.29-0.146-0.217-0.435 0.072-0.652l3.55-2.101c0.361-0.217 0.869-0.217 1.158-0.072l3.622 2.101c0.289 0.146 0.289 0.435-0.072 0.651l-3.55 2.102c-0.362 0.216-0.869 0.216-1.158 0.072z"/>
<path d="m48.44 31.98l-3.622-2.101c-0.29-0.145-0.29-0.435 0.072-0.652l3.55-2.1c0.361-0.218 0.869-0.218 1.158-0.072l3.622 2.1c0.289 0.146 0.289 0.436-0.072 0.652l-3.55 2.101c-0.362 0.217-0.868 0.217-1.158 0.072z"/>
<path d="m54.02 35.24l-3.622-2.101c-0.29-0.146-0.29-0.435 0.072-0.652l3.55-2.1c0.361-0.218 0.869-0.218 1.158-0.073l3.622 2.101c0.289 0.145 0.289 0.435-0.072 0.652l-3.55 2.1c-0.363 0.218-0.869 0.218-1.158 0.073z"/>
<path d="m59.59 38.43l-3.622-2.101c-0.29-0.145-0.29-0.435 0.072-0.651l3.55-2.101c0.361-0.218 0.869-0.218 1.158-0.072l3.622 2.101c0.289 0.145 0.217 0.435-0.072 0.651l-3.55 2.101c-0.361 0.216-0.869 0.216-1.158 0.072z"/>
<path d="m65.17 41.69l-3.622-2.101c-0.29-0.146-0.217-0.435 0.072-0.652l3.55-2.101c0.361-0.217 0.869-0.217 1.158-0.072l3.622 2.101c0.289 0.145 0.289 0.435-0.072 0.652l-3.55 2.101c-0.362 0.216-0.869 0.216-1.158 0.072z"/>
<path d="m70.75 44.87l-3.622-2.101c-0.29-0.145-0.29-0.435 0.072-0.651l3.55-2.101c0.361-0.218 0.869-0.218 1.158-0.072l3.622 2.101c0.289 0.145 0.289 0.435-0.072 0.651l-3.55 2.101c-0.362 0.217-0.869 0.217-1.158 0.072z"/>
<path d="m76.32 48.13l-3.622-2.101c-0.289-0.145-0.289-0.435 0.072-0.652l3.55-2.101c0.361-0.217 0.869-0.217 1.158-0.072l3.622 2.101c0.289 0.145 0.289 0.435-0.072 0.652l-3.55 2.101c-0.362 0.216-0.869 0.216-1.158 0.072z"/>
<path d="m81.98 51.32l-3.622-2.101c-0.289-0.145-0.289-0.435 0.073-0.651l3.549-2.101c0.362-0.218 0.869-0.218 1.158-0.072l3.622 2.101c0.29 0.145 0.29 0.435-0.072 0.651l-3.55 2.101c-0.362 0.218-0.869 0.218-1.158 0.072z"/>
<path d="m91.9 57.04l-7.896-4.563c-0.289-0.145-0.289-0.435 0.073-0.652l3.549-2.101c0.362-0.217 0.869-0.217 1.159-0.072l7.895 4.563c0.29 0.145 0.29 0.435-0.072 0.651l-3.549 2.101c-0.362 0.218-0.868 0.29-1.159 0.073z"/>
<path d="m102.76 50.81l-6.663-3.839c-0.29-0.145-0.29-0.435 0.072-0.652l3.549-2.1c0.362-0.218 0.869-0.218 1.159-0.073l6.663 3.839c0.29 0.146 0.29 0.435-0.072 0.652l-3.549 2.101c-0.362 0.217-0.869 0.217-1.159 0.072z"/>
<path d="m47.06 24.88l-3.621-2.1c-0.29-0.145-0.29-0.436 0.072-0.652l3.549-2.101c0.362-0.218 0.869-0.218 1.159-0.072l3.622 2.101c0.289 0.145 0.289 0.435-0.073 0.652l-3.549 2.1c-0.362 0.217-0.868 0.29-1.159 0.072z"/>
<path d="m41.34 21.62l-3.621-2.101c-0.29-0.145-0.218-0.435 0.072-0.652l3.549-2.1c0.362-0.218 0.869-0.218 1.159-0.072l3.621 2.1c0.29 0.145 0.29 0.436-0.072 0.652l-3.549 2.101c-0.362 0.217-0.869 0.217-1.159 0.072z"/>
<path d="m35.62 18.29l-3.622-2.101c-0.289-0.145-0.289-0.435 0.072-0.651l3.55-2.101c0.361-0.217 0.869-0.217 1.158-0.072l3.622 2.1c0.29 0.146 0.29 0.436-0.072 0.652l-3.55 2.101c-0.361 0.218-0.869 0.218-1.158 0.072z"/>
<path d="m29.9 15.03l-3.621-2.102c-0.29-0.145-0.218-0.434 0.072-0.651l3.549-2.101c0.362-0.217 0.869-0.217 1.159-0.072l3.622 2.101c0.289 0.146 0.289 0.435-0.073 0.651l-3.549 2.102c-0.362 0.217-0.868 0.217-1.159 0.072z"/>
<path d="m52.64 28.14l-3.621-2.101c-0.29-0.145-0.29-0.435 0.072-0.651l3.549-2.101c0.362-0.218 0.869-0.218 1.159-0.073l3.621 2.102c0.29 0.145 0.29 0.434-0.072 0.651l-3.549 2.101c-0.362 0.216-0.869 0.216-1.159 0.072z"/>
<path d="m58.22 31.33l-3.621-2.102c-0.29-0.145-0.29-0.434 0.072-0.651l3.549-2.101c0.362-0.217 0.869-0.217 1.159-0.072l3.622 2.101c0.289 0.146 0.289 0.435-0.073 0.651l-3.549 2.101c-0.362 0.218-0.869 0.29-1.159 0.073z"/>
<path d="m63.79 34.59l-3.621-2.101c-0.29-0.145-0.29-0.435 0.072-0.651l3.549-2.101c0.362-0.217 0.869-0.217 1.159-0.072l3.621 2.101c0.29 0.145 0.29 0.435-0.072 0.651l-3.549 2.101c-0.362 0.217-0.869 0.217-1.159 0.072z"/>
<path d="m69.37 37.78l-3.621-2.101c-0.29-0.146-0.29-0.435 0.072-0.652l3.549-2.101c0.362-0.217 0.869-0.217 1.159-0.072l3.622 2.101c0.289 0.145 0.289 0.435-0.073 0.652l-3.549 2.1c-0.362 0.218-0.869 0.29-1.159 0.073z"/>
<path d="m74.95 41.04l-3.621-2.101c-0.29-0.145-0.29-0.435 0.072-0.651l3.549-2.101c0.362-0.218 0.869-0.218 1.159-0.072l3.621 2.101c0.29 0.145 0.29 0.435-0.072 0.651l-3.549 2.101c-0.362 0.217-0.869 0.217-1.159 0.072z"/>
<path d="m80.52 44.22l-3.621-2.101c-0.29-0.146-0.29-0.435 0.072-0.652l3.549-2.101c0.362-0.217 0.869-0.217 1.159-0.072l3.622 2.101c0.289 0.145 0.289 0.435-0.073 0.652l-3.549 2.1c-0.362 0.217-0.869 0.289-1.159 0.073z"/>
<path d="m86.1 47.48l-3.621-2.101c-0.29-0.145-0.29-0.435 0.072-0.651l3.549-2.101c0.362-0.218 0.869-0.218 1.159-0.072l3.622 2.101c0.289 0.145 0.289 0.435-0.073 0.651l-3.549 2.101c-0.363 0.218-0.869 0.218-1.159 0.072z"/>
<path d="m91.68 50.67l-3.621-2.101c-0.29-0.146-0.29-0.435 0.072-0.652l3.549-2.101c0.362-0.217 0.869-0.217 1.159-0.072l3.622 2.101c0.289 0.145 0.289 0.435-0.073 0.652l-3.549 2.1c-0.29 0.217-0.797 0.29-1.159 0.073z"/>
<path d="m97.33 53.93l-3.622-2.101c-0.29-0.145-0.29-0.435 0.072-0.651l3.55-2.101c0.361-0.218 0.869-0.218 1.158-0.072l3.622 2.101c0.289 0.145 0.289 0.435-0.072 0.651l-3.55 2.101c-0.362 0.217-0.869 0.217-1.158 0.072z"/>
<path d="m44.09 16.92l-3.622-2.101c-0.29-0.146-0.29-0.435 0.072-0.651l3.55-2.102c0.361-0.217 0.869-0.217 1.158-0.072l3.622 2.102c0.289 0.145 0.289 0.434-0.073 0.651l-3.549 2.173c-0.362 0.145-0.869 0.217-1.158 0z"/>
<path d="m38.59 13.73l-3.622-2.1c-0.289-0.145-0.289-0.436 0.072-0.652l3.55-2.101c0.361-0.218 0.869-0.218 1.158-0.072l3.622 2.101c0.289 0.145 0.289 0.435-0.072 0.652l-3.55 2.1c-0.362 0.217-0.869 0.217-1.158 0.072z"/>
<path d="m33.01 10.54l-3.622-2.101c-0.29-0.145-0.29-0.435 0.072-0.652l3.55-2.1c0.361-0.218 0.869-0.218 1.158-0.073l3.622 2.101c0.289 0.145 0.289 0.435-0.072 0.652l-3.55 2.101c-0.361 0.218-0.869 0.218-1.158 0.072z"/>
<path d="m27.44 7.28l-3.622-2.101c-0.289-0.145-0.289-0.435 0.072-0.652l3.55-2.101c0.362-0.217 0.869-0.217 1.158-0.072l3.622 2.101c0.289 0.145 0.289 0.435-0.072 0.652l-3.55 2.101c-0.363 0.289-0.869 0.289-1.158 0.072z"/>
<path d="m33.16 4.02l-3.621-2.101c-0.29-0.145-0.29-0.435 0.072-0.652l1.158-0.652c0.362-0.217 0.869-0.217 1.159-0.072l3.621 2.1c0.29 0.145 0.29 0.435-0.072 0.652l-1.158 0.652c-0.362 0.218-0.869 0.218-1.159 0.073z"/>
<path d="m40.4 8.22l-3.622-2.101c-0.289-0.145-0.289-0.435 0.072-0.652l1.159-0.651c0.362-0.218 0.869-0.218 1.159-0.073l3.621 2.101c0.29 0.145 0.218 0.435-0.072 0.652l-1.158 0.652c-0.362 0.216-0.869 0.216-1.159 0.072z"/>
<path d="m45.98 11.41l-3.622-2.101c-0.289-0.145-0.217-0.435 0.073-0.652l1.158-0.651c0.362-0.217 0.869-0.217 1.159-0.072l3.621 2.101c0.29 0.145 0.29 0.435-0.072 0.652l-1.159 0.651c-0.362 0.218-0.869 0.218-1.158 0.072z"/>
<path d="m51.48 14.6l-3.622-2.1c-0.289-0.145-0.289-0.436 0.072-0.652l1.159-0.652c0.362-0.217 0.869-0.217 1.159-0.072l3.621 2.102c0.29 0.145 0.29 0.434-0.072 0.651l-1.159 0.651c-0.362 0.217-0.868 0.217-1.158 0.072z"/>
<path d="m56.99 17.78l-3.622-2.101c-0.29-0.145-0.29-0.435 0.072-0.651l1.159-0.652c0.362-0.217 0.869-0.217 1.159-0.072l3.621 2.101c0.29 0.145 0.29 0.435-0.072 0.651l-1.159 0.652c-0.362 0.217-0.869 0.217-1.158 0.072z"/>
<path d="m87.91 35.6l-3.622-2.101c-0.29-0.146-0.29-0.435 0.072-0.652l1.159-0.651c0.362-0.218 0.869-0.218 1.159-0.073l3.621 2.101c0.29 0.146 0.29 0.435-0.072 0.652l-1.159 0.651c-0.361 0.217-0.869 0.289-1.158 0.073z"/>
<path d="m93.42 38.79l-3.621-2.101c-0.29-0.145-0.29-0.435 0.072-0.651l1.159-0.652c0.362-0.218 0.869-0.218 1.159-0.072l3.621 2.101c0.29 0.145 0.29 0.435-0.072 0.651l-1.159 0.652c-0.362 0.217-0.869 0.289-1.159 0.072z"/>
<path d="m98.92 41.98l-3.621-2.1c-0.29-0.146-0.29-0.436 0.072-0.652l1.159-0.652c0.361-0.217 0.869-0.217 1.158-0.072l3.622 2.101c0.29 0.146 0.29 0.435-0.072 0.652l-1.159 0.651c-0.362 0.217-0.869 0.289-1.159 0.072z"/>
<path d="m104.5 45.16l-3.621-2.101c-0.29-0.145-0.29-0.435 0.072-0.652l1.159-0.651c0.362-0.218 0.869-0.218 1.158-0.072l3.622 2.101c0.289 0.145 0.289 0.435-0.072 0.651l-1.159 0.652c-0.362 0.289-0.869 0.289-1.159 0.072z"/>
<path d="m49.67 20.18l-3.621-2.102c-0.29-0.145-0.29-0.434 0.072-0.651l3.549-2.101c0.362-0.217 0.869-0.217 1.159-0.072l3.622 2.101c0.289 0.146 0.289 0.435-0.073 0.651l-3.549 2.102c-0.362 0.216-0.869 0.216-1.159 0.072z"/>
<path d="m55.25 23.36l-3.621-2.101c-0.29-0.145-0.29-0.435 0.072-0.652l3.549-2.1c0.362-0.218 0.87-0.218 1.159-0.072l3.622 2.1c0.289 0.145 0.289 0.436-0.073 0.652l-3.549 2.101c-0.362 0.218-0.869 0.29-1.159 0.072z"/>
<path d="m60.9 26.62l-3.622-2.1c-0.289-0.145-0.289-0.436 0.072-0.652l3.55-2.101c0.361-0.217 0.869-0.217 1.158-0.072l3.622 2.101c0.289 0.145 0.289 0.435-0.072 0.652l-3.55 2.1c-0.362 0.218-0.868 0.218-1.158 0.072z"/>
<path d="m66.48 29.81l-3.622-2.101c-0.29-0.145-0.29-0.435 0.072-0.651l3.55-2.102c0.361-0.217 0.869-0.217 1.158-0.072l3.622 2.102c0.289 0.145 0.289 0.434-0.072 0.651l-3.55 2.101c-0.362 0.216-0.869 0.288-1.158 0.072z"/>
<path d="m72.05 33.07l-3.622-2.102c-0.289-0.145-0.289-0.434 0.072-0.651l3.55-2.101c0.362-0.217 0.869-0.217 1.158-0.072l3.622 2.101c0.289 0.146 0.289 0.435-0.072 0.651l-3.55 2.101c-0.362 0.218-0.869 0.218-1.158 0.073z"/>
<path d="m77.63 36.26l-3.622-2.101c-0.29-0.145-0.29-0.435 0.072-0.651l3.55-2.101c0.361-0.218 0.869-0.218 1.158-0.072l3.622 2.1c0.29 0.146 0.29 0.435-0.072 0.652l-3.55 2.101c-0.361 0.216-0.869 0.29-1.158 0.072z"/>
<path d="m83.21 39.52l-3.622-2.101c-0.289-0.146-0.289-0.435 0.072-0.652l3.55-2.101c0.362-0.217 0.869-0.217 1.158-0.072l3.622 2.101c0.289 0.145 0.289 0.435-0.072 0.652l-3.55 2.1c-0.362 0.217-0.869 0.217-1.158 0.073z"/>
<path d="m88.78 42.7l-3.622-2.101c-0.29-0.145-0.29-0.435 0.072-0.651l3.55-2.101c0.361-0.218 0.869-0.218 1.158-0.072l3.622 2.101c0.289 0.145 0.289 0.434-0.072 0.651l-3.55 2.101c-0.361 0.217-0.869 0.29-1.158 0.072z"/>
<path d="m94.36 45.96l-3.622-2.101c-0.289-0.146-0.289-0.435 0.072-0.652l3.55-2.101c0.362-0.217 0.869-0.217 1.158-0.072l3.622 2.101c0.289 0.145 0.289 0.435-0.072 0.652l-3.55 2.101c-0.362 0.216-0.869 0.216-1.158 0.072z"/>
<path d="m17.8 20.54l-10.647-6.156c-0.289-0.145-0.289-0.435 0.072-0.652l3.55-2.1c0.362-0.218 0.869-0.218 1.158-0.072l10.647 6.156c0.29 0.145 0.29 0.435-0.072 0.652l-3.549 2.1c-0.362 0.217-0.869 0.29-1.159 0.072z"/>
<path d="m86.39 60.16l-10.648-6.157c-0.289-0.145-0.289-0.435 0.072-0.651l3.55-2.101c0.361-0.217 0.869-0.217 1.158-0.072l10.647 6.156c0.29 0.146 0.29 0.435-0.072 0.652l-3.549 2.101c-0.362 0.217-0.868 0.217-1.158 0.072z"/>
<path d="m64.01 54.36l-3.621-2.101c-0.29-0.145-0.29-0.435 0.072-0.651l4.273-2.463c0.361-0.217 0.869-0.217 1.158-0.072l3.622 2.101c0.289 0.145 0.289 0.435-0.072 0.651l-4.273 2.463c-0.362 0.218-0.869 0.29-1.159 0.072z"/>
<path d="m23.52 30.97l-5.795-3.331c-0.29-0.146-0.29-0.435 0.072-0.651l4.273-2.463c0.362-0.218 0.869-0.218 1.159-0.072l5.794 3.331c0.29 0.146 0.29 0.435-0.072 0.652l-4.273 2.462c-0.362 0.217-0.869 0.217-1.158 0.072z"/>
<path d="m58.65 51.25l-5.794-3.332c-0.29-0.145-0.29-0.435 0.072-0.651l4.273-2.463c0.362-0.218 0.869-0.218 1.159-0.072l5.794 3.332c0.29 0.145 0.29 0.435-0.072 0.651l-4.273 2.463c-0.362 0.217-0.869 0.29-1.159 0.072z"/>
<path d="m31.56 35.6l-5.794-3.332c-0.29-0.146-0.29-0.435 0.072-0.652l4.273-2.463c0.362-0.217 0.869-0.217 1.159-0.072l5.794 3.332c0.29 0.145 0.29 0.435-0.072 0.652l-4.273 2.462c-0.362 0.217-0.868 0.289-1.159 0.073z"/>
<path d="m31.27 29.16l25.133 14.486c0.29 0.146 0.29 0.507 0 0.652l-4.346 2.535c-0.29 0.145-0.797 0.145-1.159 0l-25.133-14.486 5.505-3.187z"/>
<path d="m79.66 60.23l4.057 2.317c0.217 0.146 0.217 0.362-0.072 0.508l-1.738 1.014c-0.29 0.145-0.725 0.145-0.942 0.072l-4.056-2.317c-0.218-0.146-0.218-0.362 0.072-0.508l1.738-1.014c0.29-0.216 0.724-0.216 0.941-0.072z"/>
<path d="m74.01 56.97l4.057 2.318c0.217 0.145 0.217 0.362-0.073 0.507l-1.738 1.014c-0.289 0.146-0.724 0.146-0.941 0.072l-4.056-2.317c-0.218-0.145-0.218-0.362 0.072-0.507l1.738-1.014c0.289-0.146 0.724-0.218 0.941-0.073z"/>
<path d="m68.43 53.78l4.057 2.317c0.217 0.146 0.217 0.362-0.072 0.507l-1.739 1.015c-0.289 0.145-0.724 0.145-0.941 0.072l-4.056-2.317c-0.218-0.146-0.218-0.362 0.072-0.508l1.738-1.014c0.289-0.216 0.724-0.216 0.941-0.072z"/>
<path d="m77.12 55.23l4.057 2.318c0.217 0.145 0.217 0.362-0.072 0.507l-1.738 1.014c-0.29 0.146-0.725 0.146-0.941 0.072l-4.057-2.317c-0.217-0.145-0.217-0.362 0.072-0.507l1.738-1.015c0.29-0.216 0.652-0.216 0.941-0.072z"/>
</g>
<polygon points="553.32 174.06 551.58 176.59 552.96 175.94" fill="#C3D8E5" fill-rule="nonzero"/>
<polygon points="551.58 176.59 529.42 163.84 531.16 161.31 553.32 174.06" fill="#C9E7F4" fill-rule="nonzero"/>
<path d="m175.38 147.47s-2.462-0.145-4.201 0-4.129 1.594-5.577 2.028c-1.449 0.435-4.925 2.752-4.853 3.042s1.449 4.128 3.911 7.243c2.246 2.608 10.72-12.313 10.72-12.313z" fill="#103872" fill-rule="nonzero"/>
<path d="m170.09 149s-2.608 1.956-3.549 3.767-1.231 3.911-1.231 3.911l4.78-7.678z" fill="#000" fill-rule="nonzero" opacity=".6"/>
<path d="m183.85 208.53s0.652 0.725 1.086 0.941c0.362 0.218 5.07 1.015 5.432 1.376 0.29 0.362 0.29 1.884-0.869 1.884h-5.939c-0.652 0-3.549 0.579-3.839 0-0.29-0.58-0.29-3.332 0.29-4.057 0.435-0.651 3.839-0.144 3.839-0.144z" fill="#0F1E2B" fill-rule="nonzero"/>
<path d="m184.14 207.59l0.145 0.941s-1.376 0.651-4.346 0.145v-0.941l4.201-0.145z" fill="#944A31" fill-rule="nonzero"/>
<path d="m140.9 204.84s-0.652 0.797-0.724 1.304c-0.072 0.508-0.869 2.607-0.58 3.188 0.29 0.579 2.752 0.579 3.984 0.435 1.231-0.218 3.911 0.217 4.201-0.29s0.435-1.304-0.362-1.594c-0.797-0.289-2.607-1.086-2.97-1.883s-3.549-1.16-3.549-1.16z" fill="#0F1E2B" fill-rule="nonzero"/>
<path d="m145.03 204.69l-0.435 1.087s-4.273-0.29-4.273-1.304l1.376-1.956 3.332 2.173z" fill="#944A31" fill-rule="nonzero"/>
<path d="m179.87 145.66s-2.318 1.956-3.042 1.811c-0.652-0.145 2.318 4.273 2.318 4.273s2.825-2.825 3.477-2.897c0.651-0.073-2.753-3.187-2.753-3.187z" fill="#EEA886" fill-rule="nonzero"/>
<path d="m180.08 153.63c-0.796 0.507-0.941 0.652-0.869 2.97 0.073 2.317 1.014 4.128 1.086 4.78 0.073 0.652 1.738 8.112 2.101 8.475 0.362 0.361 4.491 5.359 4.853 5.722 0.362 0.362 3.259 3.983 3.259 3.983l2.101-0.724s-5.505-9.562-5.722-10.141c-0.217-0.507-1.811-9.488-1.956-10.503-0.145-1.014 0.145-2.462-1.014-4.78-1.014-2.1-3.839 0.218-3.839 0.218z" fill="#103872" fill-rule="nonzero"/>
<path d="m171.9 171.59s0.58 0.797 1.014 1.304c0.435 0.435 7.822 8.764 8.33 9.851 0.435 1.086 0.579 5.359 0.724 6.881 0.145 1.521 2.607 19.049 2.752 19.267 0.145 0.217-3.622 1.086-5.577 0.072 0 0-2.246-11.444-2.752-13.037-0.435-1.666-1.304-7.315-1.231-7.968 0.073-0.652-5.939-7.678-7.678-8.691-1.666-1.015-5.794-4.708-6.301-5.143-0.435-0.435-3.114-1.738-2.897-4.129s2.028-4.273 2.028-4.273l11.588 5.866z" fill="#103872" fill-rule="nonzero"/>
<path d="m164.44 176.81s-0.29 0.725-0.652 1.666c-0.796 2.101-2.101 5.505-2.318 6.012-0.29 0.797-1.883 4.201-2.607 4.853s-13.544 16.297-13.617 16.442c0 0.145-5.505-0.073-5.794-1.015 0 0 8.04-11.661 9.054-12.965s3.187-3.187 3.911-6.229c0.725-3.042 5.867-14.703 5.939-15.138 0 0 0.797-3.622 2.028-4.708s5.577 0.217 6.302 2.463c0.724 2.245-2.246 8.619-2.246 8.619z" fill="#103872" fill-rule="nonzero"/>
<path d="m192.11 177.97s0.797 0.87 1.159 1.087c0.362 0.218 0.796 0.29 0.724 0.652s-0.072 1.448-0.217 2.028c-0.145 0.579-2.825 1.521-3.332 1.376-0.507-0.146-1.739-2.391-1.449-3.26 0.29-0.941 0.724-2.245 0.724-2.245l2.391 0.362z" fill="#EEA886" fill-rule="nonzero"/>
<path d="m186.89 168.48s-2.318 0-4.418 1.305c0 0 3.187 3.766 4.273 5.07 1.159 1.303 3.911 4.635 3.911 4.635l2.101-0.724s-3.404-5.795-3.983-7.171c-0.653-1.304-1.884-3.115-1.884-3.115z" fill="#EEA886" fill-rule="nonzero"/>
<path d="m186.89 168.48s-2.028-0.651-4.418 1.305c0 0 3.187 3.766 4.273 5.07 1.159 1.303 2.825 3.403 2.825 3.403l2.535-0.435s-2.825-4.853-3.404-6.229c-0.58-1.303-1.811-3.114-1.811-3.114z" fill="#103872" fill-rule="nonzero"/>
<path d="m189.36 141.82s-0.217 2.825-0.869 3.259c-0.652 0.362-0.072 2.752-0.507 2.897s-1.159 0.145-1.231 0.217-2.317 2.462-2.897 2.1c-0.652-0.362-4.491-3.259-3.984-4.708 0.507-1.448 1.376-4.853 1.521-5.504 0.145-0.724 5.07-3.042 7.967 1.739z" fill="#EEA886" fill-rule="nonzero"/>
<path d="m184.72 138.13c-0.507 0-0.942 0.072-1.304 0.217-0.362-0.073-2.535 0.29-2.752 1.376-0.29 1.376-0.507 4.925-0.507 5.36 0 0.072 0.072 0 0.145-0.217 0.797-1.014 2.897-1.304 2.897-1.304l0.869 0.145c0.072-0.942 0.652-1.449 0.652-1.449 1.304 0.797 4.78-0.29 4.78-0.29 2.101-3.983-2.172-3.983-4.78-3.838z" fill="#A5760C" fill-rule="nonzero"/>
<path d="m183.49 142.48c0-0.435-1.014-1.014-1.449-0.072-0.435 0.941 0.29 2.39 0.869 2.173 0.507-0.146 0.58-1.667 0.58-2.101z" fill="#EEA886" fill-rule="nonzero"/>
<path d="m176.61 147.47l1.014-0.362s2.535 0.579 3.983 2.607l-0.145 0.579c1e-3 9.99e-4 -3.838-0.796-4.852-2.824z" fill="#DBDFF0" fill-rule="nonzero"/>
<path d="m164.44 176.81s-0.29 0.725-0.652 1.666c-0.869-0.941-2.752-4.636-2.752-4.636 0.145 0.072 0.507 0.435 0.652 0.579 0.073 0.072 2.752 2.391 2.752 2.391z" fill="#0F1E2B" fill-rule="nonzero"/>
<path d="m166.03 172.03s9.343 3.839 8.981 3.259c-0.869-0.941-15.935-7.75-15.935-7.75 0.145 0.072-0.29 0.362-0.145 0.436 0.073 0.072 7.099 4.055 7.099 4.055z" fill="#0F1E2B" fill-rule="nonzero"/>
<path d="m180.52 162.18c-0.217 0.289-0.362 0.507-0.435 0.579-0.072 0.073-0.145 0.146-0.29 0.218-0.941 0.797-0.725 2.463-1.666 3.042-1.086 0.579-0.362 10.14-0.362 10.14s-18.18-5.794-20.425-10.937c0 0 4.78-3.187 6.229-5.288 1.449-2.1 4.636-9.705 6.374-10.792s3.114-1.811 6.519-1.666c3.332 0.073 5.215 2.752 5.215 2.752s2.535 2.752 2.752 4.201c0.073 1.231-2.68 6.012-3.911 7.751z" fill="#103872" fill-rule="nonzero"/>
<path d="m180.52 162.18c-0.217 0.289-0.362 0.507-0.435 0.579-0.072 0.073-0.145 0.146-0.29 0.218l-0.072-3.767s0.507 1.448 0.579 1.666c1e-3 0.218 0.218 1.304 0.218 1.304z" fill="#000" fill-rule="nonzero" opacity=".6"/>
<ellipse transform="translate(164.49 214.13) rotate(183.33) translate(-164.49 -214.13)" cx="164.49" cy="214.13" rx="27.885" ry="1.086" fill="#3D3D3D" fill-rule="nonzero" opacity=".1"/>
<polygon points="183.2 141.61 182.77 138.42 184 138.2 184 141.61" fill="#2D2D2D" fill-rule="nonzero"/>
<path d="m548.76 118.07s-17.455 9.996-20.063 11.517c-2.607 1.521-6.229 2.462-9.416 1.231l-0.217 0.507 13.255 6.301c3.549 1.666 7.171 0.58 10.141-1.086l20.57-11.806-14.27-6.664z" fill="#D40504" fill-rule="nonzero"/>
<polyline points="189.14 177.68 189 177.6 191.67 177.02 191.75 177.17 189.14 177.68" fill="#D3AF00" fill-rule="nonzero"/>
<polyline points="189 177.53 188.92 177.46 191.53 176.88 191.6 176.95 189 177.53" fill="#D3AF00" fill-rule="nonzero"/>
<path d="m180.38 141.75s-1.304-2.752-0.217-3.549c1.086-0.797 4.49-0.435 12.023-0.724 1.811 1.014-1.738 4.78-2.101 4.491-0.361-0.218-6.373 0.724-9.705-0.218z" fill="#051039" fill-rule="nonzero"/>
<path d="m189.5 141.97s1.956 0.579 2.535 0.145c0.58-0.507-1.159-1.014-1.231-1.376 0-0.363-1.304 1.231-1.304 1.231" fill="#051039" fill-rule="nonzero"/>
<path d="m180.16 141.39s7.822 0.435 11.082-0.29c0.145-0.145 0 0 0 0l0.217-0.218s-4.853 0.725-11.372 0.29l0.073 0.218" fill="#D3AF00" fill-rule="nonzero"/>
<polyline points="188.78 177.32 189.21 177.82 189.21 177.75 191.75 177.24 189.21 177.82" fill="#D3AF00" fill-rule="nonzero"/>
<polygon points="191.38 176.52 188.7 177.24 189.28 177.97 191.82 177.39" fill="#D3AF00" fill-rule="nonzero"/>
<rect transform="translate(298.67 119.26) rotate(142.43) translate(-298.67 -119.26)" x="295.84" y="108.68" width="5.6499" height="21.15" fill="#767676" fill-rule="nonzero"/>
<path d="m291.48 114.52l9.995 12.965-6.446 4.998s-2.1 1.811-4.346-1.159l-5.577-7.315s-2.39-2.173-0.072-4.418l6.446-5.071z" fill="#767676" fill-rule="nonzero"/>
<path d="m284.96 124.01l5.577 7.315-4.491 3.477s-1.086 1.086-2.245 0l-3.767-4.925s-1.014-0.869 0.145-2.101l4.781-3.766z" fill="#767676" fill-rule="nonzero"/>
<rect transform="translate(296.01 121.28) rotate(142.45) translate(-296.01 -121.28)" x="295.4" y="113.1" width="1.231" height="16.37" fill="#413C48" fill-rule="nonzero" opacity=".1"/>
<polygon points="284.96 119.44 289.38 116.11 290.76 117.92 286.27 121.33" fill="#413C48" fill-rule="nonzero" opacity=".1"/>
<polygon points="287.79 123.28 292.21 119.81 293.66 121.62 289.17 125.09" fill="#413C48" fill-rule="nonzero" opacity=".1"/>
<polygon points="290.62 126.98 295.1 123.57 296.48 125.38 291.99 128.79" fill="#413C48" fill-rule="nonzero" opacity=".1"/>
<polygon points="298.08 127.12 299.52 128.93 295.03 132.34 293.66 130.52" fill="#413C48" fill-rule="nonzero" opacity=".1"/>
<rect transform="translate(287.31 128.02) rotate(142.43) translate(-287.31 -128.02)" x="286.69" y="123.42" width="1.232" height="9.1993" fill="#413C48" fill-rule="nonzero" opacity=".1"/>
<rect transform="translate(352.61 110.17) rotate(136.45) translate(-352.61 -110.17)" x="342.04" y="107.34" width="21.151" height="5.6502" fill="#767676" fill-rule="nonzero"/>
<path d="m348.63 117.85l11.879-11.299 5.649 5.939s2.028 1.883-0.724 4.491l-6.664 6.374s-1.883 2.607-4.418 0.579l-5.722-6.084z" fill="#767676" fill-rule="nonzero"/>
<path d="m358.77 123.28l6.664-6.374 3.911 4.128s1.159 0.941 0.217 2.245l-4.491 4.273s-0.797 1.086-2.101 0.073l-4.2-4.345z" fill="#767676" fill-rule="nonzero"/>
<rect transform="translate(355 112.65) rotate(136.45) translate(-355 -112.65)" x="346.82" y="112.03" width="16.37" height="1.231" fill="#413C48" fill-rule="nonzero" opacity=".1"/>
<polygon points="354.28 123.79 350.44 119.73 352.11 118.21 355.95 122.27" fill="#413C48" fill-rule="nonzero" opacity=".1"/>
<polygon points="357.76 120.6 353.85 116.55 355.51 114.95 359.35 119.01" fill="#413C48" fill-rule="nonzero" opacity=".1"/>
<polygon points="361.16 117.42 357.25 113.29 358.92 111.69 362.76 115.82" fill="#413C48" fill-rule="nonzero" opacity=".1"/>
<polygon points="360.66 110.03 362.32 108.51 366.16 112.56 364.57 114.16" fill="#413C48" fill-rule="nonzero" opacity=".1"/>
<rect transform="translate(362.49 120.57) rotate(136.46) translate(-362.49 -120.57)" x="357.89" y="119.95" width="9.1993" height="1.231" fill="#413C48" fill-rule="nonzero" opacity=".1"/>
<path d="m304.67 122.41l-1.883-2.462 8.257-6.374c0.652-0.507 1.666-0.362 2.173 0.29s0.362 1.666-0.29 2.173l-8.257 6.373z" fill="url(#i)" fill-rule="nonzero"/>
<path d="m299.02 115.1l-1.883-2.462 8.257-6.374c0.652-0.507 1.666-0.362 2.173 0.29s0.362 1.666-0.29 2.173l-8.257 6.373z" fill="url(#h)" fill-rule="nonzero"/>
</g>
</svg>
