<svg id="Capa_1" data-name="Capa 1" xmlns="http://www.w3.org/2000/svg" viewBox="0 0 30.63 31.61"><defs><style>.cls-1{fill:#fff;}</style></defs><title>faviconn</title><path class="cls-1" d="M16.9,13.51,1.12,29.28a1.48,1.48,0,1,0,2.09,2.09l3.52-3.52h4.2a15.78,15.78,0,0,0,8.58-2.53A.77.77,0,0,0,19,23.9a.57.57,0,0,1-.16-1.11l5-1.5a1,1,0,0,0,.41-.25l1.38-1.38A1,1,0,0,0,25,18H23a.56.56,0,0,1-.57-.57.57.57,0,0,1,.4-.54l6.92-2.07a1,1,0,0,0,.57-.48,9.22,9.22,0,0,0,1-4.23,9.53,9.53,0,0,0-2.79-6.75L28.18,3A9.55,9.55,0,0,0,14.69,3L8.28,9.4A15.81,15.81,0,0,0,3.65,20.57V24l11.71-11.7a1,1,0,0,1,1.53,1.22Z" transform="translate(-0.69 -0.2)"/></svg>